<?xml version="1.0" encoding="utf-8"?>
<!-- Generator: Adobe Illustrator 25.0.1, SVG Export Plug-In . SVG Version: 6.00 Build 0)  -->
<svg version="1.1" id="Layer_1" xmlns="http://www.w3.org/2000/svg" xmlns:xlink="http://www.w3.org/1999/xlink" x="0px" y="0px"
	 viewBox="0 0 1080 472.5" style="enable-background:new 0 0 1080 472.5;" xml:space="preserve">
<style type="text/css">
	.st0{fill:#FFFFFF;}
	.st1{fill:#197CE2;}
	.st2{fill:#072644;}
</style>
<g>
	<g>
		<path d="M402.37,155.4c7.58,0,14.19,0.85,19.83,2.53c5.64,1.69,10.13,3.49,13.47,5.4c3.34,1.91,5.37,3.15,6.07,3.73l-11.66,19.4
			c-1.02-0.83-2.76-1.99-5.21-3.49c-2.45-1.5-5.4-2.84-8.84-4.01c-3.44-1.18-7.17-1.77-11.18-1.77c-5.8,0-10.43,1.1-13.9,3.3
			c-3.47,2.2-5.21,5.37-5.21,9.51c0,2.81,0.92,5.3,2.77,7.5c1.85,2.2,4.57,4.25,8.17,6.16c3.6,1.91,8.01,3.92,13.23,6.02
			c4.59,1.78,8.96,3.85,13.14,6.21c4.17,2.36,7.9,5.13,11.18,8.31c3.28,3.18,5.89,6.88,7.83,11.08c1.94,4.2,2.91,9.01,2.91,14.43
			c0,6.05-1.23,11.34-3.68,15.86c-2.45,4.52-5.83,8.31-10.13,11.37c-4.3,3.06-9.22,5.35-14.76,6.88s-11.37,2.29-17.49,2.29
			c-8.28,0-15.72-0.97-22.31-2.92c-6.59-1.94-11.93-4.03-16-6.26c-4.08-2.23-6.47-3.66-7.17-4.3l12.23-20.16
			c0.76,0.57,2.21,1.5,4.35,2.77c2.13,1.27,4.75,2.58,7.84,3.92c3.09,1.34,6.46,2.48,10.13,3.44c3.66,0.96,7.41,1.43,11.23,1.43
			c6.88,0,12.07-1.43,15.57-4.3c3.5-2.87,5.26-6.59,5.26-11.18c0-3.44-1.12-6.46-3.34-9.08c-2.23-2.61-5.37-5.02-9.41-7.21
			s-8.87-4.44-14.48-6.74c-5.61-2.36-10.81-5.11-15.62-8.27c-4.81-3.15-8.68-7.04-11.61-11.66c-2.93-4.62-4.4-10.3-4.4-17.06
			c0-6.69,1.89-12.52,5.69-17.49c3.79-4.97,8.82-8.82,15.1-11.56C388.25,156.77,395.05,155.4,402.37,155.4z"/>
		<path d="M476.85,250c0.19,3.57,1.15,6.75,2.87,9.55c1.72,2.81,4.22,5,7.5,6.59c3.28,1.59,7.25,2.39,11.9,2.39
			c4.08,0,7.69-0.51,10.85-1.53c3.15-1.02,5.83-2.26,8.03-3.73c2.2-1.46,3.81-2.93,4.82-4.39l10.13,14.81
			c-1.85,2.29-4.24,4.38-7.17,6.26c-2.93,1.88-6.67,3.38-11.23,4.49c-4.55,1.11-10.24,1.67-17.06,1.67c-8.6,0-16.15-1.69-22.65-5.06
			s-11.58-8.25-15.24-14.62c-3.66-6.37-5.49-13.95-5.49-22.74c0-7.64,1.64-14.54,4.92-20.69c3.28-6.15,8.03-11,14.24-14.57
			c6.21-3.57,13.68-5.35,22.41-5.35c8.22,0,15.33,1.58,21.35,4.73c6.02,3.15,10.69,7.75,14,13.81c3.31,6.05,4.97,13.44,4.97,22.17
			c0,0.51-0.02,1.56-0.05,3.15c-0.03,1.59-0.11,2.61-0.24,3.06H476.85z M513.25,234.99c-0.06-2.04-0.68-4.24-1.86-6.59
			c-1.18-2.36-3.03-4.36-5.54-6.02c-2.52-1.66-5.81-2.48-9.89-2.48c-4.14,0-7.53,0.81-10.18,2.44c-2.64,1.63-4.62,3.58-5.92,5.88
			c-1.31,2.29-2.09,4.55-2.34,6.79H513.25z"/>
		<path d="M611.68,283.82v-13.66c-0.57,1.4-2.04,3.38-4.4,5.92c-2.36,2.55-5.53,4.86-9.51,6.93c-3.98,2.07-8.65,3.11-14,3.11
			c-7.52,0-14.18-1.8-19.97-5.4c-5.8-3.6-10.33-8.53-13.62-14.81c-3.28-6.27-4.92-13.36-4.92-21.26c0-7.9,1.64-14.98,4.92-21.26
			c3.28-6.27,7.82-11.23,13.62-14.86s12.45-5.45,19.97-5.45c5.22,0,9.76,0.88,13.61,2.63c3.85,1.75,6.98,3.79,9.36,6.12
			c2.39,2.33,3.93,4.41,4.63,6.26v-12.71h24.08v78.45H611.68z M569.06,244.64c0,4.4,0.98,8.27,2.96,11.61
			c1.97,3.34,4.59,5.94,7.83,7.79c3.25,1.85,6.79,2.77,10.6,2.77c4.01,0,7.58-0.94,10.7-2.82c3.12-1.88,5.59-4.49,7.41-7.83
			c1.81-3.34,2.72-7.18,2.72-11.52c0-4.33-0.91-8.17-2.72-11.51c-1.82-3.34-4.29-5.97-7.41-7.88c-3.12-1.91-6.69-2.87-10.7-2.87
			c-3.82,0-7.36,0.94-10.6,2.82c-3.25,1.88-5.86,4.49-7.83,7.83C570.05,236.38,569.06,240.25,569.06,244.64z"/>
		<path d="M746.83,203.08c5.86,0,10.97,1.24,15.34,3.73c4.36,2.48,7.77,6.29,10.22,11.42c2.45,5.13,3.68,11.7,3.68,19.73v45.86
			h-23.89v-41.95c0-6.62-0.97-11.78-2.91-15.48c-1.94-3.69-5.62-5.54-11.04-5.54c-3.06,0-5.86,0.81-8.41,2.44
			c-2.55,1.62-4.57,4-6.07,7.12c-1.5,3.12-2.24,6.94-2.24,11.47v41.95h-22.36v-41.95c0-6.62-1.12-11.78-3.35-15.48
			c-2.23-3.69-5.76-5.54-10.6-5.54c-3.12,0-5.94,0.8-8.45,2.39c-2.52,1.59-4.49,3.93-5.93,7.02c-1.43,3.09-2.15,6.96-2.15,11.61
			v41.95h-24.08v-78.45h24.08v11.47c0.7-1.97,2.31-4.01,4.82-6.12c2.52-2.1,5.65-3.9,9.41-5.4c3.76-1.5,7.8-2.25,12.14-2.25
			c4.71,0,8.63,0.8,11.75,2.39c3.12,1.59,5.65,3.62,7.6,6.07c1.94,2.45,3.42,5.02,4.44,7.69c0.89-2.48,2.64-4.97,5.26-7.45
			c2.61-2.48,5.89-4.55,9.84-6.21C737.87,203.91,742.17,203.08,746.83,203.08z"/>
		<path d="M785.18,157.69h30.96c7.77,0,14.79,1.23,21.07,3.68c6.27,2.45,11.29,6.35,15.05,11.71c3.76,5.35,5.64,12.42,5.64,21.21
			c0,8.79-1.88,16-5.64,21.64c-3.76,5.64-8.78,9.79-15.05,12.47c-6.27,2.68-13.3,4.01-21.07,4.01h-20.26v51.41h-10.7V157.69z
			 M795.89,222.86h17.39c6.12,0,11.69-0.89,16.72-2.68c5.03-1.78,9.06-4.76,12.09-8.93c3.03-4.17,4.54-9.76,4.54-16.77
			c0-7.07-1.51-12.56-4.54-16.48c-3.03-3.92-7.05-6.69-12.09-8.31c-5.03-1.63-10.6-2.44-16.72-2.44h-17.39V222.86z"/>
		<path d="M922.19,283.82v-16.43c-0.45,1.72-1.93,4.08-4.44,7.07c-2.51,3-5.99,5.69-10.41,8.08c-4.43,2.39-9.67,3.58-15.72,3.58
			c-7.07,0-13.59-1.64-19.54-4.92c-5.96-3.28-10.73-8.03-14.33-14.24c-3.6-6.21-5.4-13.65-5.4-22.31c0-8.66,1.8-16.1,5.4-22.31
			c3.6-6.21,8.38-10.97,14.33-14.28c5.95-3.31,12.47-4.97,19.54-4.97c6.05,0,11.27,1.13,15.67,3.39c4.4,2.26,7.88,4.86,10.46,7.79
			c2.58,2.93,4.03,5.38,4.35,7.36v-16.24h10.7v78.45H922.19z M863.14,244.64c0,6.63,1.43,12.33,4.3,17.1
			c2.87,4.78,6.58,8.44,11.13,10.99c4.56,2.55,9.35,3.82,14.38,3.82c5.54,0,10.48-1.31,14.81-3.92c4.33-2.61,7.76-6.31,10.27-11.08
			c2.52-4.78,3.78-10.41,3.78-16.91c0-6.5-1.26-12.14-3.78-16.91c-2.51-4.78-5.94-8.49-10.27-11.13c-4.33-2.64-9.27-3.97-14.81-3.97
			c-5.03,0-9.82,1.29-14.38,3.87c-4.55,2.58-8.26,6.26-11.13,11.03C864.57,232.32,863.14,238.02,863.14,244.64z"/>
		<path d="M971.38,203.08c3.63,0,7.05,0.4,10.28,1.19c3.21,0.8,6.03,1.78,8.45,2.96c2.42,1.18,4.24,2.25,5.45,3.2l-5.25,7.55
			c-1.34-1.27-3.66-2.63-6.98-4.06c-3.31-1.43-7.04-2.15-11.18-2.15c-5.1,0-9.45,1.05-13.05,3.15c-3.6,2.1-5.4,5.16-5.4,9.17
			c0,3.88,1.82,6.97,5.45,9.27c3.63,2.29,8.41,4.17,14.33,5.64c4.52,1.15,8.65,2.58,12.37,4.3c3.73,1.72,6.7,4.06,8.94,7.02
			c2.23,2.96,3.34,6.9,3.34,11.8c0,4.2-0.86,7.82-2.58,10.84c-1.72,3.03-4.06,5.5-7.02,7.41c-2.96,1.91-6.32,3.34-10.08,4.3
			c-3.76,0.95-7.71,1.43-11.85,1.43c-4.27,0-8.22-0.48-11.84-1.43c-3.63-0.96-6.74-2.1-9.32-3.44c-2.58-1.34-4.54-2.58-5.87-3.73
			l5.45-8.5c1.66,1.72,4.38,3.49,8.17,5.3c3.79,1.82,8.23,2.72,13.33,2.72c5.93,0,10.81-1.37,14.67-4.11
			c3.85-2.74,5.78-6.34,5.78-10.8c0-3.25-0.92-5.86-2.77-7.84c-1.85-1.97-4.27-3.55-7.26-4.73c-3-1.18-6.18-2.18-9.56-3.01
			c-3.25-0.83-6.36-1.83-9.32-3.01c-2.96-1.18-5.59-2.66-7.88-4.44c-2.29-1.78-4.09-3.93-5.4-6.45c-1.31-2.52-1.96-5.46-1.96-8.84
			c0-4.2,1.3-7.85,3.92-10.94c2.61-3.09,6.1-5.5,10.47-7.21C961.55,203.94,966.28,203.08,971.38,203.08z"/>
		<path d="M1037.84,203.08c3.63,0,7.05,0.4,10.28,1.19c3.21,0.8,6.03,1.78,8.45,2.96c2.42,1.18,4.24,2.25,5.45,3.2l-5.25,7.55
			c-1.34-1.27-3.66-2.63-6.98-4.06c-3.31-1.43-7.04-2.15-11.18-2.15c-5.1,0-9.45,1.05-13.05,3.15c-3.6,2.1-5.4,5.16-5.4,9.17
			c0,3.88,1.82,6.97,5.45,9.27c3.63,2.29,8.41,4.17,14.33,5.64c4.52,1.15,8.65,2.58,12.37,4.3c3.73,1.72,6.7,4.06,8.94,7.02
			c2.23,2.96,3.34,6.9,3.34,11.8c0,4.2-0.86,7.82-2.58,10.84c-1.72,3.03-4.06,5.5-7.02,7.41c-2.96,1.91-6.32,3.34-10.08,4.3
			c-3.76,0.95-7.71,1.43-11.85,1.43c-4.27,0-8.22-0.48-11.84-1.43c-3.63-0.96-6.74-2.1-9.32-3.44c-2.58-1.34-4.54-2.58-5.87-3.73
			l5.45-8.5c1.66,1.72,4.38,3.49,8.17,5.3c3.79,1.82,8.23,2.72,13.33,2.72c5.93,0,10.81-1.37,14.67-4.11
			c3.85-2.74,5.78-6.34,5.78-10.8c0-3.25-0.92-5.86-2.77-7.84c-1.85-1.97-4.27-3.55-7.26-4.73c-3-1.18-6.18-2.18-9.56-3.01
			c-3.25-0.83-6.36-1.83-9.32-3.01c-2.96-1.18-5.59-2.66-7.88-4.44c-2.29-1.78-4.09-3.93-5.4-6.45c-1.31-2.52-1.96-5.46-1.96-8.84
			c0-4.2,1.3-7.85,3.92-10.94c2.61-3.09,6.1-5.5,10.47-7.21C1028.01,203.94,1032.74,203.08,1037.84,203.08z"/>
	</g>
	<path class="st1" d="M300.56,114.62l-75.48-30.51l9.01-51.52H91.45l9.01,51.52l-75.48,30.51c-5.78,2.34-9.56,7.95-9.56,14.19
		v120.76c0,32.4,15.61,63.16,41.78,82.27l79.62,58.14l25.96,18.95l25.95-18.95l79.62-58.14c26.17-19.11,41.79-49.86,41.79-82.27
		V128.81C310.13,122.57,306.34,116.96,300.56,114.62z M198.55,60.28l-2.05,12.27l-5.16,30.94l-16.56,99.33l3.66,1.68
		c5.32,2.44,10.08,6.14,13.78,10.71c5.39,6.69,8.36,15.1,8.36,23.69c0,20.85-16.96,37.81-37.81,37.81
		c-20.84,0-37.8-16.96-37.8-37.81c0-8.59,2.97-16.99,8.36-23.68c3.68-4.57,8.44-8.28,13.77-10.72l3.66-1.68l-16.56-99.33
		l-5.16-30.93l-2.05-12.27H198.55z M279.52,249.57c0,22.67-10.93,44.18-29.23,57.54l-77.28,56.43c-6.1,4.46-14.38,4.46-20.48,0
		l-77.28-56.43c-18.3-13.37-29.22-34.88-29.22-57.54V139.13l59.83-24.19l13.16,75.25c-13.86,12.45-21.74,30.03-21.74,48.71
		c0,36.12,29.38,65.5,65.5,65.5c36.12,0,65.5-29.39,65.5-65.5c0-18.68-7.89-36.26-21.75-48.71l13.16-75.25l59.83,24.18V249.57z"/>
</g>
</svg>
